<svg id="theater" xmlns="http://www.w3.org/2000/svg" width="60" height="60" viewBox="0 0 60 60">
  <circle id="Oval" cx="30" cy="30" r="30" fill="#0f0f0f"/>
  <path id="Path" d="M1.36,7.9c-3.921,16.108.927,31.121,10.829,33.532s21.109-8.694,25.03-24.8-6.826-6.891-16.728-9.3S5.281-8.211,1.36,7.9Z" transform="translate(21.953 0)" fill="#f9cb3f"/>
  <path id="Path-2" data-name="Path" d="M12.189,41.429C2.286,39.018-2.562,24.006,1.36,7.9c2.333-9.584,5.157-8.82,9.147-6.118-.977.94-1.948,3.208-3.019,7.61C3.566,25.5,5.671,39.842,12.189,41.429Z" transform="translate(21.952 0.001)" fill="#e5b832"/>
  <g id="Group" transform="translate(27.07 12.656)">
    <path id="Path-3" data-name="Path" d="M4.685,3.558A7.315,7.315,0,0,0,10.47,2.546,5.46,5.46,0,0,1,.013,0,7.315,7.315,0,0,0,4.685,3.558Z" transform="translate(0.071 0.116)" fill="#1e1e1e"/>
    <path id="Path-4" data-name="Path" d="M4.685,3.558A7.315,7.315,0,0,0,10.47,2.546,5.46,5.46,0,0,1,.013,0,7.316,7.316,0,0,0,4.685,3.558Z" transform="translate(15.978 3.989)" fill="#1e1e1e"/>
    <path id="Path-5" data-name="Path" d="M9.743,3.837A12.319,12.319,0,0,0,0,5.542,9.2,9.2,0,0,1,17.611,9.83,12.32,12.32,0,0,0,9.743,3.837Z" transform="translate(0.281 13.963)" fill="#1e1e1e"/>
  </g>
  <path id="Path-6" data-name="Path" d="M28.545,40.407A29.81,29.81,0,0,1,18.33,38.088,30.11,30.11,0,0,1,3.407,24.342a0,0,0,0,1,0,0A47.8,47.8,0,0,1,.827,16.627,30.157,30.157,0,0,1,.062,12.38l0-.042A13.011,13.011,0,0,1,0,10.87a.031.031,0,0,1,0-.015c.19-7.776,9.173-1.49,17.552-3.53,9.9-2.411,15.211-15.536,19.131.572C40.235,22.471,36.6,36.15,28.545,40.407Z" transform="translate(0.001 19.557)" fill="#f43380"/>
  <path id="Path-7" data-name="Path" d="M18.33,31.249A30.114,30.114,0,0,1,3.406,17.5,47.8,47.8,0,0,1,.827,9.787,30.157,30.157,0,0,1,.062,5.541a.173.173,0,0,0,0-.026A13.04,13.04,0,0,1,0,4.031C.1-.148,2.725-.28,6.432.184c-.367,1.309-.156,3.749.884,8.024C9.782,18.338,13.982,26.77,18.33,31.249Z" transform="translate(0 26.396)" fill="#e02d77"/>
  <g id="Group-2" data-name="Group" transform="translate(7.5 33.398)">
    <path id="Path-8" data-name="Path" d="M4.685,2.278A7.315,7.315,0,0,1,10.47,3.291,5.46,5.46,0,0,0,.013,5.836,7.315,7.315,0,0,1,4.685,2.278Z" transform="translate(0.041 3.92)" fill="#1e1e1e"/>
    <path id="Path-9" data-name="Path" d="M4.685,2.278A7.315,7.315,0,0,1,10.47,3.291,5.46,5.46,0,0,0,.013,5.836,7.315,7.315,0,0,1,4.685,2.278Z" transform="translate(15.947 0.047)" fill="#1e1e1e"/>
    <path id="Path-10" data-name="Path" d="M9.743,5.992A12.319,12.319,0,0,1,0,4.287,9.2,9.2,0,0,0,17.611,0,12.319,12.319,0,0,1,9.743,5.992Z" transform="translate(5.73 10.897)" fill="#1e1e1e"/>
  </g>
</svg>
