<?xml version="1.0" encoding="UTF-8"?>
<svg width="354px" height="89px" viewBox="0 0 354 89" version="1.1" xmlns="http://www.w3.org/2000/svg" xmlns:xlink="http://www.w3.org/1999/xlink">
    <!-- Generator: Sketch 54.1 (76490) - https://sketchapp.com -->
    <title>Logo for white 2</title>
    <desc>Created with Sketch.</desc>
    <defs>
        <linearGradient x1="50%" y1="0%" x2="50%" y2="100%" id="linearGradient-1">
            <stop stop-color="#03A9E2" offset="0%"></stop>
            <stop stop-color="#036DE2" offset="100%"></stop>
        </linearGradient>
        <path d="M41.1306941,88.8754817 C18.129215,87.1607051 0,67.9482789 0,44.5 C0,19.9233286 19.9160487,0 44.4837398,0 C69.051431,0 88.9674797,19.9233286 88.9674797,44.5 C88.9674797,67.9482789 70.8382647,87.1607051 47.8367856,88.8754817 L47.8367856,77.6164951 C53.235863,76.9127225 58.0838639,74.4150387 61.7643186,70.7459227 C66.1384962,66.3783162 68.8492054,60.3469419 68.8492054,53.7246968 L68.8492054,40.8637543 C68.8492054,39.0531327 67.3847993,37.5880495 65.5724669,37.5880495 C63.7653274,37.5880495 62.2991903,39.0531327 62.2991903,40.8637543 L62.2991903,44.5938423 L27.120555,44.5938423 L27.120555,40.8637543 C27.120555,39.0531327 25.649225,37.5880495 23.8455475,37.5880495 C22.0297532,37.5880495 20.5653471,39.0531327 20.5653471,40.8637543 L20.5653471,53.7246968 C20.5653471,60.3469419 23.2777872,66.3783162 27.6519648,70.7459227 C31.2240271,74.3140319 35.9106435,76.7743176 41.1306941,77.5543073 L41.1306941,88.8754817 Z M30.6032797,41.8226236 L43.322495,41.8226236 L43.322495,15.6532663 C37.7920251,16.1905787 33.1755108,19.9604036 31.396067,25.0225424 L39.8363084,25.0225424 C40.3175198,25.0225424 40.7069895,25.4060901 40.7069895,25.8881163 C40.7069895,26.3632317 40.3175198,26.7519625 39.8363084,26.7519625 L30.9096626,26.7519625 C30.8109969,27.2028903 30.7417579,27.6641841 30.6829047,28.1323888 L39.8363084,28.1323888 C40.3175198,28.1323888 40.7069895,28.5176642 40.7069895,28.9979627 C40.7069895,29.4748058 40.3175198,29.866992 39.8363084,29.866992 L30.6032797,29.866992 L30.6032797,31.2422352 L39.8363084,31.2422352 C40.3175198,31.2422352 40.7069895,31.630966 40.7069895,32.1078091 C40.7069895,32.5829245 40.3175198,32.9751107 39.8363084,32.9751107 L30.6032797,32.9751107 L30.6032797,34.3520815 L39.8363084,34.3520815 C40.3175198,34.3520815 40.7069895,34.74254 40.7069895,35.2211108 C40.7069895,35.6944986 40.3175198,36.0849571 39.8363084,36.0849571 L30.6032797,36.0849571 L30.6032797,37.467111 L39.8363084,37.467111 C40.3175198,37.467111 40.7069895,37.8558418 40.7069895,38.3309572 C40.7069895,38.809528 40.3175198,39.1965311 39.8363084,39.1965311 L30.6032797,39.1965311 L30.6032797,41.8226236 Z M46.0937884,15.6532663 L46.0937884,41.8226236 L58.8078107,41.8226236 L58.8078107,39.1965311 L49.5782441,39.1965311 C49.1022255,39.1965311 48.7075629,38.809528 48.7075629,38.3309572 C48.7075629,37.8558418 49.1022255,37.467111 49.5782441,37.467111 L58.8078107,37.467111 L58.8078107,36.0849571 L49.5782441,36.0849571 C49.1022255,36.0849571 48.7075629,35.6944986 48.7075629,35.2211108 C48.7075629,34.74254 49.1022255,34.3520815 49.5782441,34.3520815 L58.8078107,34.3520815 L58.8078107,32.9751107 L49.5782441,32.9751107 C49.1022255,32.9751107 48.7075629,32.5829245 48.7075629,32.1078091 C48.7075629,31.630966 49.1022255,31.2422352 49.5782441,31.2422352 L58.8078107,31.2422352 L58.8078107,29.866992 L49.5782441,29.866992 C49.1022255,29.866992 48.7075629,29.4748058 48.7075629,28.9979627 C48.7075629,28.5176642 49.1022255,28.1323888 49.5782441,28.1323888 L58.7247239,28.1323888 C58.6745255,27.6641841 58.6035555,27.2028903 58.5083518,26.7519625 L49.5782441,26.7519625 C49.1022255,26.7519625 48.7075629,26.3632317 48.7075629,25.8881163 C48.7075629,25.4060901 49.1022255,25.0225424 49.5782441,25.0225424 L58.0167545,25.0225424 C56.2338487,19.9604036 51.6156034,16.1905787 46.0937884,15.6532663 Z M27.120555,48.3170195 L30.6032797,48.3170195 L30.6032797,53.5294676 C30.6032797,61.267802 36.9525015,67.6049778 44.7055452,67.6049778 C52.4603199,67.6049778 58.8078107,61.267802 58.8078107,53.5294676 L58.8078107,48.3170195 L62.2991903,48.3170195 L62.2991903,53.7246968 C62.2991903,58.5449587 60.3206842,62.9315698 57.1253016,66.1174346 C53.9385739,69.2981164 49.5367006,71.2745965 44.7055452,71.2745965 C39.8761208,71.2745965 35.4794405,69.2981164 32.2909818,66.1174346 C29.0973302,62.9315698 27.120555,58.5449587 27.120555,53.7246968 L27.120555,48.3170195 Z" id="path-2"></path>
        <linearGradient x1="50%" y1="0%" x2="50%" y2="100%" id="linearGradient-4">
            <stop stop-color="#03A9E2" offset="0%"></stop>
            <stop stop-color="#036DE2" offset="100%"></stop>
        </linearGradient>
        <linearGradient x1="50%" y1="0%" x2="50%" y2="100%" id="linearGradient-5">
            <stop stop-color="#03A9E2" offset="0%"></stop>
            <stop stop-color="#036DE2" offset="100%"></stop>
        </linearGradient>
    </defs>
    <g id="Page-1" stroke="none" stroke-width="1" fill="none" fill-rule="evenodd">
        <g id="LOGO-manual" transform="translate(-121.000000, -1006.000000)">
            <g id="Logo-for-white-2" transform="translate(121.000000, 1006.000000)">
                <g id="Group-3" transform="translate(114.079268, 10.766129)" line-spacing="53.8306452">
                    <g id="Group-2">
                        <text id="Open-mic-list" font-family="BebasNeueBold, Bebas Neue" font-size="45.9354839" font-weight="bold" letter-spacing="3.73225793" fill="#1E1E1E">
                            <tspan x="0" y="43">OPEN MIC LIS</tspan>
                            <tspan x="224.073289" y="43">T</tspan>
                        </text>
                        <text id="Open-Mic-List-Region" font-family="Prelo-Medium, Prelo" font-size="17.2258065" font-weight="400" letter-spacing="2.79999995" fill="#9A9A9A">
                            <tspan x="0" y="66.5241935">OPEN MIC LIST REGION</tspan>
                            <tspan x="226.328773" y="66.5241935">S</tspan>
                        </text>
                    </g>
                </g>
                <g id="Oval-Copy-+-Oval-Mask">
                    <mask id="mask-3" fill="white">
                        <use xlink:href="#path-2"></use>
                    </mask>
                    <use id="Mask" fill="url(#linearGradient-1)" xlink:href="#path-2"></use>
                    <ellipse id="Oval-Copy" fill="url(#linearGradient-4)" opacity="0.578683036" style="mix-blend-mode: multiply;" mask="url(#mask-3)" cx="14.9769375" cy="14.9824121" rx="73.9905421" ry="74.0175879"></ellipse>
                    <ellipse id="Oval" fill="url(#linearGradient-5)" opacity="0.373651414" style="mix-blend-mode: multiply;" mask="url(#mask-3)" cx="24.5890019" cy="-1.78894472" rx="59.9077501" ry="59.9296482"></ellipse>
                </g>
            </g>
        </g>
    </g>
</svg>