<?xml version="1.0" encoding="UTF-8"?>
<svg width="275px" height="69px" viewBox="0 0 275 69" version="1.1" xmlns="http://www.w3.org/2000/svg" xmlns:xlink="http://www.w3.org/1999/xlink">
    <!-- Generator: Sketch 54.1 (76490) - https://sketchapp.com -->
    <title>Logo for white</title>
    <desc>Created with Sketch.</desc>
    <defs>
        <linearGradient x1="50%" y1="0%" x2="50%" y2="100%" id="linearGradient-1">
            <stop stop-color="#03A9E2" offset="0%"></stop>
            <stop stop-color="#036DE2" offset="100%"></stop>
        </linearGradient>
        <path d="M31.8878415,68.9034634 C14.0552341,67.5740298 0,52.6790028 0,34.5 C0,15.4461761 15.4405321,0 34.4873938,0 C53.5342555,0 68.9747876,15.4461761 68.9747876,34.5 C68.9747876,52.6790028 54.9195535,67.5740298 37.0869461,68.9034634 L37.0869461,60.1745861 C41.2727477,59.6289646 45.0313102,57.6925581 47.8846964,54.8479625 C51.2759128,51.4618406 53.3774738,46.7858314 53.3774738,41.6517312 L53.3774738,31.6808882 C53.3774738,30.2771478 52.2421477,29.1412968 50.8370811,29.1412968 C49.4360404,29.1412968 48.2993723,30.2771478 48.2993723,31.6808882 L48.2993723,34.5727541 L21.0260483,34.5727541 L21.0260483,31.6808882 C21.0260483,30.2771478 19.8853542,29.1412968 18.4869975,29.1412968 C17.0792468,29.1412968 15.9439208,30.2771478 15.9439208,31.6808882 L15.9439208,41.6517312 C15.9439208,46.7858314 18.0468238,51.4618406 21.4380401,54.8479625 C24.2073918,57.6142495 27.840836,59.521662 31.8878415,60.1263731 L31.8878415,68.9034634 Z M23.7261382,32.4242812 L33.5871029,32.4242812 L33.5871029,12.1356784 C29.2994352,12.5522464 25.7203398,15.4749196 24.340771,19.3994992 L30.884329,19.3994992 C31.257403,19.3994992 31.5593514,19.6968564 31.5593514,20.0705621 C31.5593514,20.43891 31.257403,20.7402856 30.884329,20.7402856 L23.963671,20.7402856 C23.8871774,21.0898812 23.8334977,21.4475135 23.7878699,21.8105037 L30.884329,21.8105037 C31.257403,21.8105037 31.5593514,22.1092003 31.5593514,22.4815666 C31.5593514,22.8512539 31.257403,23.1553084 30.884329,23.1553084 L23.7261382,23.1553084 L23.7261382,24.2215082 L30.884329,24.2215082 C31.257403,24.2215082 31.5593514,24.5228837 31.5593514,24.8925711 C31.5593514,25.260919 31.257403,25.5649734 30.884329,25.5649734 L23.7261382,25.5649734 L23.7261382,26.6325127 L30.884329,26.6325127 C31.257403,26.6325127 31.5593514,26.9352277 31.5593514,27.3062545 C31.5593514,27.6732629 31.257403,27.9759779 30.884329,27.9759779 L23.7261382,27.9759779 L23.7261382,29.0475355 L30.884329,29.0475355 C31.257403,29.0475355 31.5593514,29.3489111 31.5593514,29.717259 C31.5593514,30.0882858 31.257403,30.3883219 30.884329,30.3883219 L23.7261382,30.3883219 L23.7261382,32.4242812 Z M35.7356337,12.1356784 L35.7356337,32.4242812 L45.5925724,32.4242812 L45.5925724,30.3883219 L38.4370656,30.3883219 C38.0680176,30.3883219 37.7620431,30.0882858 37.7620431,29.717259 C37.7620431,29.3489111 38.0680176,29.0475355 38.4370656,29.0475355 L45.5925724,29.0475355 L45.5925724,27.9759779 L38.4370656,27.9759779 C38.0680176,27.9759779 37.7620431,27.6732629 37.7620431,27.3062545 C37.7620431,26.9352277 38.0680176,26.6325127 38.4370656,26.6325127 L45.5925724,26.6325127 L45.5925724,25.5649734 L38.4370656,25.5649734 C38.0680176,25.5649734 37.7620431,25.260919 37.7620431,24.8925711 C37.7620431,24.5228837 38.0680176,24.2215082 38.4370656,24.2215082 L45.5925724,24.2215082 L45.5925724,23.1553084 L38.4370656,23.1553084 C38.0680176,23.1553084 37.7620431,22.8512539 37.7620431,22.4815666 C37.7620431,22.1092003 38.0680176,21.8105037 38.4370656,21.8105037 L45.5281567,21.8105037 C45.4892389,21.4475135 45.4342172,21.0898812 45.3604076,20.7402856 L38.4370656,20.7402856 C38.0680176,20.7402856 37.7620431,20.43891 37.7620431,20.0705621 C37.7620431,19.6968564 38.0680176,19.3994992 38.4370656,19.3994992 L44.9792816,19.3994992 C43.5970288,15.4749196 40.0165914,12.5522464 35.7356337,12.1356784 Z M21.0260483,37.4592623 L23.7261382,37.4592623 L23.7261382,41.5003737 C23.7261382,47.4997566 28.6485686,52.412848 34.6593553,52.412848 C40.671484,52.412848 45.5925724,47.4997566 45.5925724,41.5003737 L45.5925724,37.4592623 L48.2993723,37.4592623 L48.2993723,41.6517312 C48.2993723,45.3887882 46.7654743,48.789644 44.2881552,51.2595841 C41.817546,53.725506 38.4048578,55.2578333 34.6593553,55.2578333 C30.9151948,55.2578333 27.5065325,53.725506 25.0345814,51.2595841 C22.5586043,48.789644 21.0260483,45.3887882 21.0260483,41.6517312 L21.0260483,37.4592623 Z" id="path-2"></path>
        <linearGradient x1="50%" y1="0%" x2="50%" y2="100%" id="linearGradient-4">
            <stop stop-color="#03A9E2" offset="0%"></stop>
            <stop stop-color="#036DE2" offset="100%"></stop>
        </linearGradient>
        <linearGradient x1="50%" y1="0%" x2="50%" y2="100%" id="linearGradient-5">
            <stop stop-color="#03A9E2" offset="0%"></stop>
            <stop stop-color="#036DE2" offset="100%"></stop>
        </linearGradient>
    </defs>
    <g id="Page-1" stroke="none" stroke-width="1" fill="none" fill-rule="evenodd">
        <g id="LOGO-manual" transform="translate(-161.000000, -1152.000000)">
            <g id="Logo-for-white" transform="translate(161.000000, 1152.000000)">
                <g id="Group-3" transform="translate(88.443478, 8.346774)" line-spacing="41.733871">
                    <g id="Group-2">
                        <text id="Open-mic-list" font-family="BebasNeueBold, Bebas Neue" font-size="35.6129032" font-weight="bold" letter-spacing="2.89354822" fill="#1E1E1E">
                            <tspan x="0" y="34">OPEN MIC LIS</tspan>
                            <tspan x="173.71974" y="34">T</tspan>
                        </text>
                        <text id="Open-Mic-List-Region" font-family="Prelo-Medium, Prelo" font-size="13.3548387" font-weight="400" letter-spacing="2.22000003" fill="#9A9A9A">
                            <tspan x="0" y="51.3951613">OPEN MIC LIST REGION</tspan>
                            <tspan x="176.452646" y="51.3951613">S</tspan>
                        </text>
                    </g>
                </g>
                <g id="Oval-Copy-+-Oval-Mask">
                    <mask id="mask-3" fill="white">
                        <use xlink:href="#path-2"></use>
                    </mask>
                    <use id="Mask" fill="url(#linearGradient-1)" xlink:href="#path-2"></use>
                    <ellipse id="Oval-Copy" fill="url(#linearGradient-4)" opacity="0.578683036" style="mix-blend-mode: multiply;" mask="url(#mask-3)" cx="11.6113336" cy="11.6155779" rx="57.363454" ry="57.3844221"></ellipse>
                    <ellipse id="Oval" fill="url(#linearGradient-5)" opacity="0.373651414" style="mix-blend-mode: multiply;" mask="url(#mask-3)" cx="19.0633835" cy="-1.38693467" rx="46.4453344" ry="46.4623116"></ellipse>
                </g>
            </g>
        </g>
    </g>
</svg>