<?xml version="1.0" encoding="UTF-8"?>
<svg width="379px" height="95px" viewBox="0 0 379 95" version="1.1" xmlns="http://www.w3.org/2000/svg" xmlns:xlink="http://www.w3.org/1999/xlink">
    <!-- Generator: Sketch 54.1 (76490) - https://sketchapp.com -->
    <title>Logo for black</title>
    <desc>Created with Sketch.</desc>
    <defs>
        <path d="M43.9271153,94.8670873 C19.3617962,93.0367077 0,72.5290618 0,47.5 C0,21.2664744 21.2701143,0 47.5081301,0 C73.7461458,0 95.0162602,21.2664744 95.0162602,47.5 C95.0162602,72.5290618 75.654464,93.0367077 51.0891449,94.8670873 L51.0891449,82.8490678 C56.8552985,82.0978498 62.0329085,79.4317829 65.9635924,75.5153107 C70.6351645,70.8532588 73.5301712,64.4152751 73.5301712,57.3465865 L73.5301712,43.6186142 C73.5301712,41.6859281 71.966202,40.1220753 70.0306516,40.1220753 C68.1006471,40.1220753 66.5348293,41.6859281 66.5348293,43.6186142 L66.5348293,47.6001687 L28.9644455,47.6001687 L28.9644455,43.6186142 C28.9644455,41.6859281 27.3930817,40.1220753 25.4667745,40.1220753 C23.5275268,40.1220753 21.9635576,41.6859281 21.9635576,43.6186142 L21.9635576,57.3465865 C21.9635576,64.4152751 24.860413,70.8532588 29.5319851,75.5153107 C33.3469072,79.3239667 38.3521603,81.9501143 43.9271153,82.7826876 L43.9271153,94.8670873 Z M32.683956,44.6421263 L46.2679338,44.6421263 L46.2679338,16.7085427 C40.3614546,17.2820784 35.4310696,21.3060488 33.5306438,26.7094554 L42.5447259,26.7094554 C43.0586543,26.7094554 43.4746036,27.1188602 43.4746036,27.6333826 C43.4746036,28.1405282 43.0586543,28.5554656 42.5447259,28.5554656 L33.0111694,28.5554656 C32.9057956,29.036793 32.8318491,29.5291853 32.7689945,30.0289543 L42.5447259,30.0289543 C43.0586543,30.0289543 43.4746036,30.4402034 43.4746036,30.9528815 C43.4746036,31.4618714 43.0586543,31.8804971 42.5447259,31.8804971 L32.683956,31.8804971 L32.683956,33.3484533 L42.5447259,33.3484533 C43.0586543,33.3484533 43.4746036,33.7633906 43.4746036,34.2723805 C43.4746036,34.7795261 43.0586543,35.1981518 42.5447259,35.1981518 L32.683956,35.1981518 L32.683956,36.6679522 L42.5447259,36.6679522 C43.0586543,36.6679522 43.4746036,37.0847337 43.4746036,37.5955677 C43.4746036,38.1008693 43.0586543,38.5176508 42.5447259,38.5176508 L32.683956,38.5176508 L32.683956,39.9929836 L42.5447259,39.9929836 C43.0586543,39.9929836 43.4746036,40.407921 43.4746036,40.9150667 C43.4746036,41.4259007 43.0586543,41.8389939 42.5447259,41.8389939 L32.683956,41.8389939 L32.683956,44.6421263 Z M49.2276437,16.7085427 L49.2276437,44.6421263 L62.8060755,44.6421263 L62.8060755,41.8389939 L52.9490029,41.8389939 C52.4406205,41.8389939 52.0191252,41.4259007 52.0191252,40.9150667 C52.0191252,40.407921 52.4406205,39.9929836 52.9490029,39.9929836 L62.8060755,39.9929836 L62.8060755,38.5176508 L52.9490029,38.5176508 C52.4406205,38.5176508 52.0191252,38.1008693 52.0191252,37.5955677 C52.0191252,37.0847337 52.4406205,36.6679522 52.9490029,36.6679522 L62.8060755,36.6679522 L62.8060755,35.1981518 L52.9490029,35.1981518 C52.4406205,35.1981518 52.0191252,34.7795261 52.0191252,34.2723805 C52.0191252,33.7633906 52.4406205,33.3484533 52.9490029,33.3484533 L62.8060755,33.3484533 L62.8060755,31.8804971 L52.9490029,31.8804971 C52.4406205,31.8804971 52.0191252,31.4618714 52.0191252,30.9528815 C52.0191252,30.4402034 52.4406205,30.0289543 52.9490029,30.0289543 L62.7173397,30.0289543 C62.6637284,29.5291853 62.5879332,29.036793 62.4862567,28.5554656 L52.9490029,28.5554656 C52.4406205,28.5554656 52.0191252,28.1405282 52.0191252,27.6333826 C52.0191252,27.1188602 52.4406205,26.7094554 52.9490029,26.7094554 L61.9612364,26.7094554 C60.0571132,21.3060488 55.1248796,17.2820784 49.2276437,16.7085427 Z M28.9644455,51.5743466 L32.683956,51.5743466 L32.683956,57.1381957 C32.683956,65.3982156 39.4648529,72.1626168 47.7450157,72.1626168 C56.0270272,72.1626168 62.8060755,65.3982156 62.8060755,57.1381957 L62.8060755,51.5743466 L66.5348293,51.5743466 L66.5348293,57.3465865 C66.5348293,62.4918098 64.4218072,67.1741475 61.0091748,70.5747898 C57.6057857,73.9698995 52.904635,76.0796255 47.7450157,76.0796255 C42.5872452,76.0796255 37.8916405,73.9698995 34.4864027,70.5747898 C31.0756189,67.1741475 28.9644455,62.4918098 28.9644455,57.3465865 L28.9644455,51.5743466 Z" id="path-1"></path>
        <linearGradient x1="50%" y1="0%" x2="50%" y2="100%" id="linearGradient-3">
            <stop stop-color="#03A9E2" offset="0%"></stop>
            <stop stop-color="#036DE2" offset="100%"></stop>
        </linearGradient>
        <linearGradient x1="50%" y1="0%" x2="50%" y2="100%" id="linearGradient-4">
            <stop stop-color="#03A9E2" offset="0%"></stop>
            <stop stop-color="#036DE2" offset="100%"></stop>
        </linearGradient>
    </defs>
    <g id="Page-1" stroke="none" stroke-width="1" fill="none" fill-rule="evenodd">
        <g id="LOGO-manual" transform="translate(-1039.000000, -988.000000)">
            <g id="Logo-for-black" transform="translate(1039.000000, 988.000000)">
                <g id="Group-3" transform="translate(121.835366, 11.491935)" line-spacing="57.4596774">
                    <g id="Group-2">
                        <text id="Open-mic-list" font-family="BebasNeueBold, Bebas Neue" font-size="49.0322581" font-weight="bold" letter-spacing="3.98387082" fill="#FFFFFF">
                            <tspan x="0" y="47">OPEN MIC LIS</tspan>
                            <tspan x="239.179353" y="47">T</tspan>
                        </text>
                        <text id="Open-Mic-List-Region" font-family="Prelo-Medium, Prelo" font-size="18.3870968" font-weight="400" letter-spacing="3.0999999" fill="#9A9A9A">
                            <tspan x="0" y="45.8629032">OPEN MIC LIST REGION</tspan>
                            <tspan x="243.811611" y="45.8629032">S</tspan>
                        </text>
                    </g>
                </g>
                <g id="Oval-Copy-+-Oval-Mask">
                    <mask id="mask-2" fill="white">
                        <use xlink:href="#path-1"></use>
                    </mask>
                    <use id="Mask" fill="#037DE2" xlink:href="#path-1"></use>
                    <ellipse id="Oval-Copy" fill="url(#linearGradient-3)" opacity="0.508951823" style="mix-blend-mode: screen;" mask="url(#mask-2)" cx="18.4865077" cy="20.5815367" rx="79.0210606" ry="79.0075377"></ellipse>
                    <ellipse id="Oval" fill="url(#linearGradient-4)" opacity="0.508951823" style="mix-blend-mode: screen;" mask="url(#mask-2)" cx="28.7520836" cy="2.67952667" rx="63.9807983" ry="63.9698492"></ellipse>
                </g>
            </g>
        </g>
    </g>
</svg>