<?xml version="1.0" encoding="UTF-8"?>
<svg width="333px" height="89px" viewBox="0 0 333 89" version="1.1" xmlns="http://www.w3.org/2000/svg" xmlns:xlink="http://www.w3.org/1999/xlink">
    <!-- Generator: Sketch 54.1 (76490) - https://sketchapp.com -->
    <title>Group 4</title>
    <desc>Created with Sketch.</desc>
    <defs>
        <linearGradient x1="50%" y1="0%" x2="50%" y2="100%" id="linearGradient-1">
            <stop stop-color="#03A9E2" offset="0%"></stop>
            <stop stop-color="#036DE2" offset="100%"></stop>
        </linearGradient>
        <path d="M41.199839,88.8754817 C18.1596921,87.1607051 0,67.9482789 0,44.5 C0,19.9233286 19.9495296,0 44.5585216,0 C69.1675135,0 89.1170431,19.9233286 89.1170431,44.5 C89.1170431,67.9482789 70.9573511,87.1607051 47.9172041,88.8754817 L47.9172041,77.6164951 C53.325358,76.9127225 58.1815089,74.4150387 61.8681507,70.7459227 C66.2496818,66.3783162 68.9649479,60.3469419 68.9649479,53.7246968 L68.9649479,40.8637543 C68.9649479,39.0531327 67.49808,37.5880495 65.6827009,37.5880495 C63.8725235,37.5880495 62.4039216,39.0531327 62.4039216,40.8637543 L62.4039216,44.5938423 L27.1661475,44.5938423 L27.1661475,40.8637543 C27.1661475,39.0531327 25.692344,37.5880495 23.8856343,37.5880495 C22.0667874,37.5880495 20.5999195,39.0531327 20.5999195,40.8637543 L20.5999195,53.7246968 C20.5999195,60.3469419 23.3169196,66.3783162 27.6984506,70.7459227 C31.2765179,74.3140319 35.971013,76.7743176 41.199839,77.5543073 L41.199839,88.8754817 Z M30.654727,41.8226236 L43.3953246,41.8226236 L43.3953246,15.6532663 C37.8555574,16.1905787 33.2312822,19.9604036 31.448847,25.0225424 L39.9032773,25.0225424 C40.3852977,25.0225424 40.7754222,25.4060901 40.7754222,25.8881163 C40.7754222,26.3632317 40.3852977,26.7519625 39.9032773,26.7519625 L30.9616249,26.7519625 C30.8627934,27.2028903 30.7934379,27.6641841 30.7344858,28.1323888 L39.9032773,28.1323888 C40.3852977,28.1323888 40.7754222,28.5176642 40.7754222,28.9979627 C40.7754222,29.4748058 40.3852977,29.866992 39.9032773,29.866992 L30.654727,29.866992 L30.654727,31.2422352 L39.9032773,31.2422352 C40.3852977,31.2422352 40.7754222,31.630966 40.7754222,32.1078091 C40.7754222,32.5829245 40.3852977,32.9751107 39.9032773,32.9751107 L30.654727,32.9751107 L30.654727,34.3520815 L39.9032773,34.3520815 C40.3852977,34.3520815 40.7754222,34.74254 40.7754222,35.2211108 C40.7754222,35.6944986 40.3852977,36.0849571 39.9032773,36.0849571 L30.654727,36.0849571 L30.654727,37.467111 L39.9032773,37.467111 C40.3852977,37.467111 40.7754222,37.8558418 40.7754222,38.3309572 C40.7754222,38.809528 40.3852977,39.1965311 39.9032773,39.1965311 L30.654727,39.1965311 L30.654727,41.8226236 Z M46.1712768,15.6532663 L46.1712768,41.8226236 L58.9066727,41.8226236 L58.9066727,39.1965311 L49.6615902,39.1965311 C49.1847714,39.1965311 48.7894453,38.809528 48.7894453,38.3309572 C48.7894453,37.8558418 49.1847714,37.467111 49.6615902,37.467111 L58.9066727,37.467111 L58.9066727,36.0849571 L49.6615902,36.0849571 C49.1847714,36.0849571 48.7894453,35.6944986 48.7894453,35.2211108 C48.7894453,34.74254 49.1847714,34.3520815 49.6615902,34.3520815 L58.9066727,34.3520815 L58.9066727,32.9751107 L49.6615902,32.9751107 C49.1847714,32.9751107 48.7894453,32.5829245 48.7894453,32.1078091 C48.7894453,31.630966 49.1847714,31.2422352 49.6615902,31.2422352 L58.9066727,31.2422352 L58.9066727,29.866992 L49.6615902,29.866992 C49.1847714,29.866992 48.7894453,29.4748058 48.7894453,28.9979627 C48.7894453,28.5176642 49.1847714,28.1323888 49.6615902,28.1323888 L58.8234461,28.1323888 C58.7731634,27.6641841 58.7020741,27.2028903 58.6067103,26.7519625 L49.6615902,26.7519625 C49.1847714,26.7519625 48.7894453,26.3632317 48.7894453,25.8881163 C48.7894453,25.4060901 49.1847714,25.0225424 49.6615902,25.0225424 L58.1142866,25.0225424 C56.3283835,19.9604036 51.7023745,16.1905787 46.1712768,15.6532663 Z M27.1661475,48.3170195 L30.654727,48.3170195 L30.654727,53.5294676 C30.654727,61.267802 37.0146225,67.6049778 44.7806998,67.6049778 C52.5485111,67.6049778 58.9066727,61.267802 58.9066727,53.5294676 L58.9066727,48.3170195 L62.4039216,48.3170195 L62.4039216,53.7246968 C62.4039216,58.5449587 60.4220894,62.9315698 57.2213351,66.1174346 C54.0292501,69.2981164 49.6199769,71.2745965 44.7806998,71.2745965 C39.9431567,71.2745965 35.5390851,69.2981164 32.3452663,66.1174346 C29.1462458,62.9315698 27.1661475,58.5449587 27.1661475,53.7246968 L27.1661475,48.3170195 Z" id="path-2"></path>
        <linearGradient x1="50%" y1="0%" x2="50%" y2="100%" id="linearGradient-4">
            <stop stop-color="#03A9E2" offset="0%"></stop>
            <stop stop-color="#036DE2" offset="100%"></stop>
        </linearGradient>
        <linearGradient x1="50%" y1="0%" x2="50%" y2="100%" id="linearGradient-5">
            <stop stop-color="#03A9E2" offset="0%"></stop>
            <stop stop-color="#036DE2" offset="100%"></stop>
        </linearGradient>
    </defs>
    <g id="Final-002" stroke="none" stroke-width="1" fill="none" fill-rule="evenodd">
        <g id="Select-regions" transform="translate(-545.000000, -60.000000)">
            <g id="Group-6" transform="translate(333.000000, 18.000000)">
                <g id="Group-4" transform="translate(212.000000, 42.000000)">
                    <g id="Group-3" transform="translate(115.677618, 16.766129)" fill-rule="nonzero">
                        <g id="Group-2">
                            <path d="M5.07942916,8.13487221 L5.07942916,25.5228722 C5.07942916,27.8228722 6.09142916,28.6968722 7.70142916,28.6968722 C9.31142916,28.6968722 10.3234292,27.8228722 10.3234292,25.5228722 L10.3234292,8.13487221 C10.3234292,5.83487221 9.31142916,4.96087221 7.70142916,4.96087221 C6.09142916,4.96087221 5.07942916,5.83487221 5.07942916,8.13487221 Z M0.0194291581,25.2008722 L0.0194291581,8.45687221 C0.0194291581,3.30487221 2.73342916,0.360872212 7.70142916,0.360872212 C12.6694292,0.360872212 15.3834292,3.30487221 15.3834292,8.45687221 L15.3834292,25.2008722 C15.3834292,30.3528722 12.6694292,33.2968722 7.70142916,33.2968722 C2.73342916,33.2968722 0.0194291581,30.3528722 0.0194291581,25.2008722 Z M29.8389292,0.728872212 C34.8989292,0.728872212 37.3829292,3.53487221 37.3829292,8.68687221 L37.3829292,12.8728722 C37.3829292,18.0248722 34.8989292,20.8308722 29.8389292,20.8308722 L27.4469292,20.8308722 L27.4469292,32.9288722 L22.3869292,32.9288722 L22.3869292,0.728872212 L29.8389292,0.728872212 Z M29.8389292,5.32887221 L27.4469292,5.32887221 L27.4469292,16.2308722 L29.8389292,16.2308722 C31.4489292,16.2308722 32.3229292,15.4948722 32.3229292,13.1948722 L32.3229292,8.36487221 C32.3229292,6.06487221 31.4489292,5.32887221 29.8389292,5.32887221 Z M48.7564292,5.32887221 L48.7564292,14.2988722 L55.7024292,14.2988722 L55.7024292,18.8988722 L48.7564292,18.8988722 L48.7564292,28.3288722 L57.4964292,28.3288722 L57.4964292,32.9288722 L43.6964292,32.9288722 L43.6964292,0.728872212 L57.4964292,0.728872212 L57.4964292,5.32887221 L48.7564292,5.32887221 Z M75.1719292,32.9288722 L68.8699292,9.60687221 L68.8699292,32.9288722 L64.3159292,32.9288722 L64.3159292,0.728872212 L70.6639292,0.728872212 L75.8619292,20.0028722 L75.8619292,0.728872212 L80.3699292,0.728872212 L80.3699292,32.9288722 L75.1719292,32.9288722 Z M94.7334292,0.728872212 L98.4594292,23.5908722 L101.909429,0.728872212 L108.947429,0.728872212 L108.947429,32.9288722 L104.163429,32.9288722 L104.163429,9.83687221 L100.667429,32.9288722 L95.8834292,32.9288722 L92.1114292,10.1588722 L92.1114292,32.9288722 L87.6954292,32.9288722 L87.6954292,0.728872212 L94.7334292,0.728872212 Z M116.364929,32.9288722 L116.364929,0.728872212 L121.424929,0.728872212 L121.424929,32.9288722 L116.364929,32.9288722 Z M138.732429,20.9228722 L143.516429,20.9228722 L143.516429,25.2008722 C143.516429,30.3528722 140.940429,33.2968722 135.972429,33.2968722 C131.004429,33.2968722 128.428429,30.3528722 128.428429,25.2008722 L128.428429,8.45687221 C128.428429,3.30487221 131.004429,0.360872212 135.972429,0.360872212 C140.940429,0.360872212 143.516429,3.30487221 143.516429,8.45687221 L143.516429,11.5848722 L138.732429,11.5848722 L138.732429,8.13487221 C138.732429,5.83487221 137.720429,4.96087221 136.110429,4.96087221 C134.500429,4.96087221 133.488429,5.83487221 133.488429,8.13487221 L133.488429,25.5228722 C133.488429,27.8228722 134.500429,28.6508722 136.110429,28.6508722 C137.720429,28.6508722 138.732429,27.8228722 138.732429,25.5228722 L138.732429,20.9228722 Z M150.335929,32.9288722 L150.335929,0.728872212 L155.395929,0.728872212 L155.395929,28.3288722 L163.721929,28.3288722 L163.721929,32.9288722 L150.335929,32.9288722 Z M169.667429,32.9288722 L169.667429,0.728872212 L174.727429,0.728872212 L174.727429,32.9288722 L169.667429,32.9288722 Z M181.500929,8.45687221 C181.500929,3.30487221 184.030929,0.360872212 188.952929,0.360872212 C193.874929,0.360872212 196.404929,3.30487221 196.404929,8.45687221 L196.404929,9.46887221 L191.620929,9.46887221 L191.620929,8.13487221 C191.620929,5.83487221 190.700929,4.96087221 189.090929,4.96087221 C187.480929,4.96087221 186.560929,5.83487221 186.560929,8.13487221 C186.560929,14.7588722 196.450929,16.0008722 196.450929,25.2008722 C196.450929,30.3528722 193.874929,33.2968722 188.906929,33.2968722 C183.938929,33.2968722 181.362929,30.3528722 181.362929,25.2008722 L181.362929,23.2228722 L186.146929,23.2228722 L186.146929,25.5228722 C186.146929,27.8228722 187.158929,28.6508722 188.768929,28.6508722 C190.378929,28.6508722 191.390929,27.8228722 191.390929,25.5228722 C191.390929,18.8988722 181.500929,17.6568722 181.500929,8.45687221 Z M201.614429,5.32887221 L201.614429,0.728872212 L217.254429,0.728872212 L217.254429,5.32887221 L211.964429,5.32887221 L211.964429,32.9288722 L206.904429,32.9288722 L206.904429,5.32887221 L201.614429,5.32887221 Z" id="OPENMICLIST" fill="#1E1E1E"></path>
                            <path d="M10.5934292,46.2559695 L10.5934292,47.7859695 L4.47342916,47.7859695 L4.47342916,51.3859695 L9.78342916,51.3859695 L9.78342916,52.9159695 L4.47342916,52.9159695 L4.47342916,56.9659695 L10.6834292,56.9659695 L10.6834292,58.4959695 L2.76342916,58.4959695 L2.76342916,46.2559695 L10.5934292,46.2559695 Z M24.6454293,56.4619695 L24.6634293,56.4619695 L27.9754293,46.2559695 L29.7934293,46.2559695 L25.6714293,58.5859695 L23.5654293,58.5859695 L19.3534293,46.2559695 L21.2434293,46.2559695 L24.6454293,56.4619695 Z M46.1854295,46.2559695 L46.1854295,47.7859695 L40.0654295,47.7859695 L40.0654295,51.3859695 L45.3754295,51.3859695 L45.3754295,52.9159695 L40.0654295,52.9159695 L40.0654295,56.9659695 L46.2754295,56.9659695 L46.2754295,58.4959695 L38.3554295,58.4959695 L38.3554295,46.2559695 L46.1854295,46.2559695 Z M57.1414297,58.4959695 L55.4854297,58.4959695 L55.4854297,46.2559695 L57.1954297,46.2559695 L63.1354297,55.3459695 L63.1714297,55.3459695 L63.1714297,46.2559695 L64.8454297,46.2559695 L64.8454297,58.4959695 L63.1354297,58.4959695 L57.1774297,49.6039695 L57.1414297,49.6039695 L57.1414297,58.4959695 Z M82.3354299,47.7859695 L78.9514299,47.7859695 L78.9514299,58.4959695 L77.2414299,58.4959695 L77.2414299,47.7859695 L73.8754299,47.7859695 L73.8754299,46.2559695 L82.3354299,46.2559695 L82.3354299,47.7859695 Z M106.69543,58.6759695 C102.50143,58.6759695 101.47543,55.7959695 101.47543,52.2859695 C101.47543,48.8659695 102.50143,46.0759695 106.69543,46.0759695 C108.08143,46.0759695 109.30543,46.2559695 110.83543,46.7059695 L110.43943,48.1459695 C108.58543,47.6959695 107.81143,47.6059695 106.82143,47.6059695 C103.99543,47.6059695 103.27543,49.6759695 103.27543,52.2859695 C103.27543,55.0759695 103.99543,57.1459695 106.82143,57.1459695 C107.72143,57.1459695 108.45943,56.9119695 109.12543,56.5519695 L109.12543,53.7259695 L106.78543,53.7259695 L106.78543,52.1959695 L110.83543,52.1959695 L110.83543,57.7039695 C109.59343,58.2259695 108.42343,58.6759695 106.69543,58.6759695 Z M128.21743,58.4959695 L127.20943,55.3999695 L122.52943,55.3999695 L121.48543,58.4959695 L119.68543,58.4959695 L123.89743,46.1659695 L126.00343,46.1659695 L130.12543,58.4959695 L128.21743,58.4959695 Z M124.92343,48.3079695 L124.88743,48.3079695 L122.88943,53.9599695 L126.84943,53.9599695 L124.92343,48.3079695 Z M138.687431,46.2559695 L140.397431,46.2559695 L140.397431,56.9659695 L146.427431,56.9659695 L146.427431,58.4959695 L138.687431,58.4959695 L138.687431,46.2559695 Z M155.457431,46.2559695 L157.167431,46.2559695 L157.167431,56.9659695 L163.197431,56.9659695 L163.197431,58.4959695 L155.457431,58.4959695 L155.457431,46.2559695 Z M180.057431,46.2559695 L180.057431,47.7859695 L173.937431,47.7859695 L173.937431,51.3859695 L179.247431,51.3859695 L179.247431,52.9159695 L173.937431,52.9159695 L173.937431,56.9659695 L180.147431,56.9659695 L180.147431,58.4959695 L172.227431,58.4959695 L172.227431,46.2559695 L180.057431,46.2559695 Z M198.573431,58.4959695 L196.575431,58.4959695 L193.677431,53.7259695 L191.067431,53.7259695 L191.067431,58.4959695 L189.357431,58.4959695 L189.357431,46.2559695 L194.397431,46.2559695 C196.827431,46.2559695 198.177431,47.8399695 198.177431,49.9999695 C198.177431,51.7279695 197.241431,53.1139695 195.459431,53.4559695 L198.573431,58.4959695 Z M191.067431,47.7859695 L191.067431,52.1959695 L194.127431,52.1959695 C195.477431,52.1959695 196.413431,51.4759695 196.413431,49.9999695 C196.413431,48.5959695 195.567431,47.7859695 194.217431,47.7859695 L191.067431,47.7859695 Z M210.771431,52.4299695 L210.807431,52.4299695 L213.831431,46.2559695 L215.703431,46.2559695 L211.599431,54.1759695 L211.599431,58.4959695 L209.889431,58.4959695 L209.889431,54.1759695 L205.803431,46.2559695 L207.747431,46.2559695 L210.771431,52.4299695 Z" id="EVENTGALLERY" fill="#9A9A9A"></path>
                        </g>
                    </g>
                    <g id="Oval-Copy-+-Oval-Mask">
                        <mask id="mask-3" fill="white">
                            <use xlink:href="#path-2"></use>
                        </mask>
                        <use id="Mask" fill="url(#linearGradient-1)" xlink:href="#path-2"></use>
                        <ellipse id="Oval-Copy" fill="url(#linearGradient-4)" opacity="0.578683036" style="mix-blend-mode: multiply;" mask="url(#mask-3)" cx="15.0021153" cy="14.9824121" rx="74.1149278" ry="74.0175879"></ellipse>
                        <ellipse id="Oval" fill="url(#linearGradient-5)" opacity="0.373651414" style="mix-blend-mode: multiply;" mask="url(#mask-3)" cx="24.6303386" cy="-1.78894472" rx="60.0084612" ry="59.9296482"></ellipse>
                    </g>
                </g>
            </g>
        </g>
    </g>
</svg>