<?xml version="1.0" encoding="UTF-8"?>
<svg width="278px" height="74px" viewBox="0 0 278 74" version="1.1" xmlns="http://www.w3.org/2000/svg" xmlns:xlink="http://www.w3.org/1999/xlink">
    <!-- Generator: Sketch 54.1 (76490) - https://sketchapp.com -->
    <title>Group 4 Copy</title>
    <desc>Created with Sketch.</desc>
    <defs>
        <path d="M34.4512808,74.6867905 C15.2942415,73.2610212 0.195121951,57.2866444 0.195121951,37.7903226 C0.195121951,17.3557868 16.782426,0.790322581 37.2439024,0.790322581 C57.7053789,0.790322581 74.2926829,17.3557868 74.2926829,37.7903226 C74.2926829,57.2866444 59.1935634,73.2610212 40.0365241,74.6867905 L40.0365241,65.325386 C44.5332062,64.7402266 48.570918,62.6635009 51.6362258,59.6127751 C55.2793086,55.9812821 57.5369531,50.9664316 57.5369531,45.4602952 L57.5369531,34.7669273 C57.5369531,33.2614666 56.317306,32.0433075 54.8078847,32.0433075 C53.3027884,32.0433075 52.0816997,33.2614666 52.0816997,34.7669273 L52.0816997,37.8683488 L22.7827797,37.8683488 L22.7827797,34.7669273 C22.7827797,33.2614666 21.557366,32.0433075 20.055153,32.0433075 C18.5428484,32.0433075 17.3232014,33.2614666 17.3232014,34.7669273 L17.3232014,45.4602952 C17.3232014,50.9664316 19.5822875,55.9812821 23.2253703,59.6127751 C26.2004023,62.5795177 30.1037032,64.6251484 34.4512808,65.2736792 L34.4512808,74.6867905 Z M25.6834059,35.5641894 L36.2767467,35.5641894 L36.2767467,13.805398 C31.670633,14.252152 27.8257174,17.3866132 26.3436877,21.5955826 L33.3732371,21.5955826 C33.7740195,21.5955826 34.0983937,21.9144874 34.0983937,22.3152732 C34.0983937,22.710313 33.7740195,23.0335274 33.3732371,23.0335274 L25.9385803,23.0335274 C25.8564055,23.408456 25.798739,23.7920038 25.7497224,24.1812975 L33.3732371,24.1812975 C33.7740195,24.1812975 34.0983937,24.5016389 34.0983937,24.9009882 C34.0983937,25.2974645 33.7740195,25.6235519 33.3732371,25.6235519 L25.6834059,25.6235519 L25.6834059,26.7670125 L33.3732371,26.7670125 C33.7740195,26.7670125 34.0983937,27.0902269 34.0983937,27.4867032 C34.0983937,27.8817429 33.7740195,28.2078303 33.3732371,28.2078303 L25.6834059,28.2078303 L25.6834059,29.3527275 L33.3732371,29.3527275 C33.7740195,29.3527275 34.0983937,29.6773783 34.0983937,30.0752911 C34.0983937,30.4688944 33.7740195,30.7935453 33.3732371,30.7935453 L25.6834059,30.7935453 L25.6834059,31.9427519 L33.3732371,31.9427519 C33.7740195,31.9427519 34.0983937,32.2659663 34.0983937,32.6610061 C34.0983937,33.0589189 33.7740195,33.3806968 33.3732371,33.3806968 L25.6834059,33.3806968 L25.6834059,35.5641894 Z M38.5848494,13.805398 L38.5848494,35.5641894 L49.1738652,35.5641894 L49.1738652,33.3806968 L41.4869173,33.3806968 C41.0904599,33.3806968 40.7617607,33.0589189 40.7617607,32.6610061 C40.7617607,32.2659663 41.0904599,31.9427519 41.4869173,31.9427519 L49.1738652,31.9427519 L49.1738652,30.7935453 L41.4869173,30.7935453 C41.0904599,30.7935453 40.7617607,30.4688944 40.7617607,30.0752911 C40.7617607,29.6773783 41.0904599,29.3527275 41.4869173,29.3527275 L49.1738652,29.3527275 L49.1738652,28.2078303 L41.4869173,28.2078303 C41.0904599,28.2078303 40.7617607,27.8817429 40.7617607,27.4867032 C40.7617607,27.0902269 41.0904599,26.7670125 41.4869173,26.7670125 L49.1738652,26.7670125 L49.1738652,25.6235519 L41.4869173,25.6235519 C41.0904599,25.6235519 40.7617607,25.2974645 40.7617607,24.9009882 C40.7617607,24.5016389 41.0904599,24.1812975 41.4869173,24.1812975 L49.1046653,24.1812975 C49.0628571,23.7920038 49.0037489,23.408456 48.9244574,23.0335274 L41.4869173,23.0335274 C41.0904599,23.0335274 40.7617607,22.710313 40.7617607,22.3152732 C40.7617607,21.9144874 41.0904599,21.5955826 41.4869173,21.5955826 L48.5150251,21.5955826 C47.0301121,17.3866132 43.1837548,14.252152 38.5848494,13.805398 Z M22.7827797,40.9640242 L25.6834059,40.9640242 L25.6834059,45.2979698 C25.6834059,51.7320905 30.9714263,57.001203 37.4286356,57.001203 C43.8872864,57.001203 49.1738652,51.7320905 49.1738652,45.2979698 L49.1738652,40.9640242 L52.0816997,40.9640242 L52.0816997,45.4602952 C52.0816997,49.4681534 50.4338788,53.115448 47.7725686,55.7643693 C45.1184668,58.4089812 41.4523174,60.0523467 37.4286356,60.0523467 C33.4063954,60.0523467 29.744571,58.4089812 27.0890275,55.7643693 C24.429159,53.115448 22.7827797,49.4681534 22.7827797,45.4602952 L22.7827797,40.9640242 Z" id="path-1"></path>
        <linearGradient x1="50%" y1="0%" x2="50%" y2="100%" id="linearGradient-3">
            <stop stop-color="#03A9E2" offset="0%"></stop>
            <stop stop-color="#036DE2" offset="100%"></stop>
        </linearGradient>
        <linearGradient x1="50%" y1="0%" x2="50%" y2="100%" id="linearGradient-4">
            <stop stop-color="#03A9E2" offset="0%"></stop>
            <stop stop-color="#036DE2" offset="100%"></stop>
        </linearGradient>
    </defs>
    <g id="Final-002" stroke="none" stroke-width="1" fill="none" fill-rule="evenodd">
        <g id="Home" transform="translate(-60.000000, -20.000000)">
            <g id="Group">
                <g id="Group-4-Copy" transform="translate(59.000000, 18.000000)">
                    <g id="Group-3" transform="translate(0.012195, 0.951613)">
                        <g id="Group-2">
                            <g id="Group-16" transform="translate(0.792683, 0.258065)">
                                <path d="M100.592607,20.9136774 L100.592607,35.3508387 C100.592607,37.2605161 101.432865,37.9861935 102.76964,37.9861935 C104.106414,37.9861935 104.946672,37.2605161 104.946672,35.3508387 L104.946672,20.9136774 C104.946672,19.004 104.106414,18.2783226 102.76964,18.2783226 C101.432865,18.2783226 100.592607,19.004 100.592607,20.9136774 Z M96.3913171,35.0834839 L96.3913171,21.1810323 C96.3913171,16.9033548 98.6447364,14.4589677 102.76964,14.4589677 C106.894543,14.4589677 109.147962,16.9033548 109.147962,21.1810323 L109.147962,35.0834839 C109.147962,39.3611613 106.894543,41.8055484 102.76964,41.8055484 C98.6447364,41.8055484 96.3913171,39.3611613 96.3913171,35.0834839 Z M121.150285,14.7645161 C125.351575,14.7645161 127.414027,17.0943226 127.414027,21.372 L127.414027,24.8476129 C127.414027,29.1252903 125.351575,31.4550968 121.150285,31.4550968 L119.16422,31.4550968 L119.16422,41.5 L114.96293,41.5 L114.96293,14.7645161 L121.150285,14.7645161 Z M121.150285,18.583871 L119.16422,18.583871 L119.16422,27.6357419 L121.150285,27.6357419 C122.487059,27.6357419 123.212736,27.0246452 123.212736,25.1149677 L123.212736,21.1046452 C123.212736,19.1949677 122.487059,18.583871 121.150285,18.583871 Z M136.857381,18.583871 L136.857381,26.0316129 L142.624607,26.0316129 L142.624607,29.8509677 L136.857381,29.8509677 L136.857381,37.6806452 L144.114156,37.6806452 L144.114156,41.5 L132.656091,41.5 L132.656091,14.7645161 L144.114156,14.7645161 L144.114156,18.583871 L136.857381,18.583871 Z M158.790026,41.5 L153.55751,22.135871 L153.55751,41.5 L149.776349,41.5 L149.776349,14.7645161 L155.047059,14.7645161 L159.36293,30.7676129 L159.36293,14.7645161 L163.105897,14.7645161 L163.105897,41.5 L158.790026,41.5 Z M175.031833,14.7645161 L178.12551,33.7467097 L180.990026,14.7645161 L186.833639,14.7645161 L186.833639,41.5 L182.86151,41.5 L182.86151,22.3268387 L179.9588,41.5 L175.986671,41.5 L172.8548,22.5941935 L172.8548,41.5 L169.18822,41.5 L169.18822,14.7645161 L175.031833,14.7645161 Z M192.992349,41.5 L192.992349,14.7645161 L197.193639,14.7645161 L197.193639,41.5 L192.992349,41.5 Z M211.563962,31.5314839 L215.536091,31.5314839 L215.536091,35.0834839 C215.536091,39.3611613 213.397252,41.8055484 209.272349,41.8055484 C205.147445,41.8055484 203.008607,39.3611613 203.008607,35.0834839 L203.008607,21.1810323 C203.008607,16.9033548 205.147445,14.4589677 209.272349,14.4589677 C213.397252,14.4589677 215.536091,16.9033548 215.536091,21.1810323 L215.536091,23.7781935 L211.563962,23.7781935 L211.563962,20.9136774 C211.563962,19.004 210.723703,18.2783226 209.386929,18.2783226 C208.050155,18.2783226 207.209897,19.004 207.209897,20.9136774 L207.209897,35.3508387 C207.209897,37.2605161 208.050155,37.948 209.386929,37.948 C210.723703,37.948 211.563962,37.2605161 211.563962,35.3508387 L211.563962,31.5314839 Z M221.198284,41.5 L221.198284,14.7645161 L225.399574,14.7645161 L225.399574,37.6806452 L232.312607,37.6806452 L232.312607,41.5 L221.198284,41.5 Z M237.249123,41.5 L237.249123,14.7645161 L241.450413,14.7645161 L241.450413,41.5 L237.249123,41.5 Z M247.074413,21.1810323 C247.074413,16.9033548 249.175058,14.4589677 253.261768,14.4589677 C257.348477,14.4589677 259.449123,16.9033548 259.449123,21.1810323 L259.449123,22.0212903 L255.476993,22.0212903 L255.476993,20.9136774 C255.476993,19.004 254.713123,18.2783226 253.376348,18.2783226 C252.039574,18.2783226 251.275703,19.004 251.275703,20.9136774 C251.275703,26.4135484 259.487316,27.4447742 259.487316,35.0834839 C259.487316,39.3611613 257.348477,41.8055484 253.223574,41.8055484 C249.098671,41.8055484 246.959832,39.3611613 246.959832,35.0834839 L246.959832,33.4411613 L250.931961,33.4411613 L250.931961,35.3508387 C250.931961,37.2605161 251.772219,37.948 253.108993,37.948 C254.445768,37.948 255.286026,37.2605161 255.286026,35.3508387 C255.286026,29.8509677 247.074413,28.8197419 247.074413,21.1810323 Z M263.774542,18.583871 L263.774542,14.7645161 L276.760348,14.7645161 L276.760348,18.583871 L272.36809,18.583871 L272.36809,41.5 L268.1668,41.5 L268.1668,18.583871 L263.774542,18.583871 Z" id="OPENMICLIST" fill="#FFFFFF" fill-rule="nonzero"></path>
                                <path d="M102.368607,53.9380645 L102.368607,55.1554839 L97.49893,55.1554839 L97.49893,58.02 L101.724091,58.02 L101.724091,59.2374194 L97.49893,59.2374194 L97.49893,62.46 L102.44022,62.46 L102.44022,63.6774194 L96.1382848,63.6774194 L96.1382848,53.9380645 L102.368607,53.9380645 Z M114.504607,62.0589677 L114.51893,62.0589677 L117.154285,53.9380645 L118.600865,53.9380645 L115.320994,63.7490323 L113.645253,63.7490323 L110.293769,53.9380645 L111.79764,53.9380645 L114.504607,62.0589677 Z M132.598801,53.9380645 L132.598801,55.1554839 L127.729124,55.1554839 L127.729124,58.02 L131.954285,58.02 L131.954285,59.2374194 L127.729124,59.2374194 L127.729124,62.46 L132.670414,62.46 L132.670414,63.6774194 L126.368478,63.6774194 L126.368478,53.9380645 L132.598801,53.9380645 Z M142.271317,63.6774194 L140.95364,63.6774194 L140.95364,53.9380645 L142.314285,53.9380645 L147.040736,61.1709677 L147.069382,61.1709677 L147.069382,53.9380645 L148.401382,53.9380645 L148.401382,63.6774194 L147.040736,63.6774194 L142.299962,56.6020645 L142.271317,56.6020645 L142.271317,63.6774194 Z M163.272994,55.1554839 L160.580349,55.1554839 L160.580349,63.6774194 L159.219704,63.6774194 L159.219704,55.1554839 L156.541382,55.1554839 L156.541382,53.9380645 L163.272994,53.9380645 L163.272994,55.1554839 Z M184.565898,63.8206452 C181.228736,63.8206452 180.412349,61.5290323 180.412349,58.736129 C180.412349,56.0148387 181.228736,53.7948387 184.565898,53.7948387 C185.668736,53.7948387 186.642672,53.9380645 187.860091,54.296129 L187.544994,55.4419355 C186.069769,55.083871 185.453898,55.0122581 184.666156,55.0122581 C182.417511,55.0122581 181.844607,56.6593548 181.844607,58.736129 C181.844607,60.956129 182.417511,62.6032258 184.666156,62.6032258 C185.382285,62.6032258 185.969511,62.4170323 186.499446,62.1305806 L186.499446,59.8819355 L184.637511,59.8819355 L184.637511,58.6645161 L187.860091,58.6645161 L187.860091,63.0472258 C186.871833,63.4625806 185.940865,63.8206452 184.565898,63.8206452 Z M202.645769,63.6774194 L201.843704,61.2139355 L198.119833,61.2139355 L197.289124,63.6774194 L195.856865,63.6774194 L199.208349,53.8664516 L200.884091,53.8664516 L204.163962,63.6774194 L202.645769,63.6774194 Z M200.024736,55.5708387 L199.996091,55.5708387 L198.406285,60.068129 L201.557253,60.068129 L200.024736,55.5708387 Z M211.931575,53.9380645 L213.29222,53.9380645 L213.29222,62.46 L218.090285,62.46 L218.090285,63.6774194 L211.931575,63.6774194 L211.931575,53.9380645 Z M226.230285,53.9380645 L227.59093,53.9380645 L227.59093,62.46 L232.388994,62.46 L232.388994,63.6774194 L226.230285,63.6774194 L226.230285,53.9380645 Z M246.759317,53.9380645 L246.759317,55.1554839 L241.88964,55.1554839 L241.88964,58.02 L246.114801,58.02 L246.114801,59.2374194 L241.88964,59.2374194 L241.88964,62.46 L246.83093,62.46 L246.83093,63.6774194 L240.528994,63.6774194 L240.528994,53.9380645 L246.759317,53.9380645 Z M262.447317,63.6774194 L260.857511,63.6774194 L258.551575,59.8819355 L256.474801,59.8819355 L256.474801,63.6774194 L255.114156,63.6774194 L255.114156,53.9380645 L259.124478,53.9380645 C261.058027,53.9380645 262.13222,55.1984516 262.13222,56.9171613 C262.13222,58.292129 261.387446,59.3949677 259.969511,59.6670968 L262.447317,63.6774194 Z M256.474801,55.1554839 L256.474801,58.6645161 L258.90964,58.6645161 C259.983833,58.6645161 260.728607,58.0916129 260.728607,56.9171613 C260.728607,55.8 260.055446,55.1554839 258.981253,55.1554839 L256.474801,55.1554839 Z M274.010414,58.8507097 L274.039059,58.8507097 L276.445253,53.9380645 L277.934801,53.9380645 L274.669253,60.24 L274.669253,63.6774194 L273.308607,63.6774194 L273.308607,60.24 L270.057382,53.9380645 L271.60422,53.9380645 L274.010414,58.8507097 Z" id="EVENTGALLERY" fill="#9A9A9A" fill-rule="nonzero"></path>
                                <mask id="mask-2" fill="white">
                                    <use xlink:href="#path-1"></use>
                                </mask>
                                <use id="Mask" fill="#037DE2" xlink:href="#path-1"></use>
                                <ellipse id="Oval-Copy" fill="url(#linearGradient-3)" opacity="0.508951823" style="mix-blend-mode: screen;" mask="url(#mask-2)" cx="14.6116558" cy="16.8222564" rx="61.623851" ry="61.5427136"></ellipse>
                                <ellipse id="Oval" fill="url(#linearGradient-4)" opacity="0.508951823" style="mix-blend-mode: screen;" mask="url(#mask-2)" cx="22.6171712" cy="2.87753283" rx="49.8948401" ry="49.8291457"></ellipse>
                                <circle id="Oval" stroke="#05BBF6" stroke-width="0.4" mask="url(#mask-2)" cx="36.695122" cy="38.2903226" r="42.5"></circle>
                                <circle id="Oval-Copy-2" stroke="#05BBF6" stroke-width="0.4" opacity="0.3" mask="url(#mask-2)" cx="36.695122" cy="38.2903226" r="47.5"></circle>
                            </g>
                        </g>
                    </g>
                    <g id="Oval-Copy-+-Oval-Mask" transform="translate(1.000000, 2.000000)"></g>
                </g>
            </g>
        </g>
    </g>
</svg>